<svg xmlns="http://www.w3.org/2000/svg" xmlns:xlink="http://www.w3.org/1999/xlink" version="1.1" xml:space="preserve" viewBox="276.59 320.88 359.07 365.29">
<desc>Created with Fabric.js 4.6.0</desc>
<defs>
</defs>
<g transform="matrix(1 0 0 1 395.42 498.37)" id="hcyfQ4T1WL9mQAByoTU0D">
<path style="stroke: rgb(0,0,0); stroke-width: 0; stroke-dasharray: none; stroke-linecap: butt; stroke-dashoffset: 0; stroke-linejoin: miter; stroke-miterlimit: 4; fill: rgb(238,170,70); fill-rule: nonzero; opacity: 1;" vector-effect="non-scaling-stroke" transform=" translate(0, 0)" d="M 16.05813 -93.66925 L -118.82559 -93.66925 C -118.82559 -93.66925 -118.82559 -155.99483 -52.31396000000001 -170.87855000000002 C 14.197669999999988 -185.76227000000003 99.31395 -170.87855000000002 99.31395 -170.87855000000002 C 99.31395 -170.87855000000002 155.59302 -157.39018000000002 76.98837 -15.994830000000007 C -1.6162800000000033 125.40052 -96.96511999999998 177.49354 -96.96511999999998 177.49354 C -96.96511999999998 177.49354 14.197670000000016 56.0522 16.05814000000001 41.63359 C 17.918610000000008 27.21499 16.05814000000001 -93.66925 16.05814000000001 -93.66925 z" stroke-linecap="round"/>
</g>
<g transform="matrix(1 0 0 1 455.66 573.57)" id="p8W0nDyQOXDMjuASrrmmY">
<path style="stroke: rgb(255,0,14); stroke-width: 0; stroke-dasharray: none; stroke-linecap: butt; stroke-dashoffset: 0; stroke-linejoin: miter; stroke-miterlimit: 4; fill: #dca656; fill-rule: nonzero; opacity: 1;" vector-effect="non-scaling-stroke" transform=" translate(0, 0)" d="M -29.56035 -3.53864 C -19.56938 -15.410599999999999 -16.192619999999998 -20.35029 -5.149639999999998 -33.572559999999996 C 20.86832 -64.72507999999999 45.119040000000005 -112.59633 45.119040000000005 -112.59633 L 45.119040000000005 38.566460000000006 C 45.119040000000005 38.566460000000006 39.58760000000001 76.79447 12.843410000000006 95.74796 C -13.900779999999994 114.70145000000001 -45.113519999999994 112.51995000000001 -45.113519999999994 112.51995000000001 C -45.113519999999994 112.51995000000001 -43.71816999999999 87.86879 -45.113519999999994 18.566460000000006 C -45.3229 8.167180000000007 -39.55132 8.333330000000007 -29.560349999999993 -3.538639999999994 z" stroke-linecap="round"/>
</g>
<g transform="matrix(1 0 0 1 577.29 365.56)" id="OjTGUqnE3Uen685OmKILZ">
<path style="stroke: rgb(255,0,14); stroke-width: 0; stroke-dasharray: none; stroke-linecap: butt; stroke-dashoffset: 0; stroke-linejoin: miter; stroke-miterlimit: 4; fill: #dca656; fill-rule: nonzero; opacity: 1;" vector-effect="non-scaling-stroke" transform=" translate(0, 0)" d="M -48.1538 -3.28598 C -49.432869999999994 -23.28598 -58.37209 -40.991060000000004 -58.37209 -40.991060000000004 L 58.3721 -40.991060000000004 C 58.3721 -40.991060000000004 50.356390000000005 8.073229999999995 17.90681 27.99105 C -14.542769999999997 47.90887 -55.58138 39.00894 -55.58138 39.00894 C -55.58138 39.00894 -46.87471 16.71402 -48.153780000000005 -3.285979999999995 z" stroke-linecap="round"/>
</g>
</svg>